<svg id="Layer_1" data-name="Layer 1" xmlns="http://www.w3.org/2000/svg" viewBox="0 0 270.921 239.554"><defs><style>.cls-1{fill:#d1e2ed;}.cls-2{fill:#e9f2f9;}.cls-3{fill:#fff;}.cls-4{fill:#1c2e34;}.cls-5{fill:#2a293a;}.cls-6{fill:#3f3d55;}.cls-7{fill:#ffb0a0;}.cls-8{fill:#0b181b;}.cls-9{fill:#d0d0ea;}.cls-10{fill:#aeaed3;}.cls-11{fill:#f9a498;}.cls-12{fill:#ff6484;}.cls-13,.cls-16,.cls-18,.cls-24,.cls-26{fill:none;}.cls-13{stroke:#e98980;stroke-width:0.5px;}.cls-13,.cls-24,.cls-26{stroke-miterlimit:10;}.cls-14{fill:#263238;}.cls-15{fill:#ef9d8e;}.cls-16{stroke:#0b181b;stroke-width:0.527px;}.cls-16,.cls-18{stroke-linecap:round;stroke-linejoin:round;}.cls-17{fill:#ffba99;}.cls-18{stroke:#312220;stroke-width:0.558px;}.cls-19{fill:#cb9da8;}.cls-20{fill:#b8b8ff;}.cls-21{fill:#6c62ff;}.cls-22{fill:#4c4cd8;}.cls-23{fill:#e2e6e8;}.cls-24{stroke:#263238;}.cls-24,.cls-26{stroke-width:1.161px;}.cls-25{fill:#cdd1d3;}.cls-26{stroke:#9fa5a8;}</style></defs><title>details-2</title><path class="cls-1" d="M227.136,44.258c23.589,26.3,46.235,67.342,43.571,103.422-6.225,84.261-123.89,102.1-188.307,81.97C41.463,216.856,5.457,182.588.582,140.365c-3.171-27.477,6.9-55.328,23.276-77.736C76-8.754,165.206-24.785,227.136,44.258Z"/><path class="cls-2" d="M199.731,27.134c29.214,18.058,61.652,50.118,69.208,84.475,17.647,80.244-86.644,129.066-152.055,127.925C75.318,238.809,32.361,216.72,16.1,178.7c-10.583-24.743-8.971-53.459,0-78.824C44.665,19.076,123.035-20.272,199.731,27.134Z"/><rect class="cls-3" x="25.616" y="37.789" width="33.086" height="41.984"/><rect class="cls-3" x="25.616" y="83.624" width="33.086" height="43.018"/><rect class="cls-3" x="62.269" y="37.789" width="33.086" height="41.984"/><rect class="cls-3" x="62.269" y="83.624" width="33.086" height="43.018"/><rect class="cls-3" x="102.261" y="167.52" width="3.758" height="13.278"/><path class="cls-4" d="M113.975,166.053H94.6a3.606,3.606,0,0,1-3.606-3.606h0a3.606,3.606,0,0,1,3.606-3.606h19.375a3.606,3.606,0,0,1,3.606,3.606h0a3.606,3.606,0,0,1-3.606,3.606h0Z"/><rect class="cls-4" x="100.816" y="164.367" width="6.875" height="4.716"/><rect class="cls-4" x="100.816" y="178.643" width="6.875" height="20.646"/><rect class="cls-4" x="84.444" y="196.745" width="38.823" height="2.873"/><rect class="cls-4" x="84.444" y="196.745" width="2.277" height="8.93"/><circle class="cls-4" cx="85.397" cy="205.675" r="3.568"/><rect class="cls-4" x="120.99" y="196.745" width="2.277" height="8.93"/><circle class="cls-4" cx="121.943" cy="205.675" r="3.568"/><path class="cls-5" d="M128.292,162.939a26.684,26.684,0,0,1-26.653-26.653V103.639a3.366,3.366,0,0,1,6.732,0v32.653a19.944,19.944,0,0,0,19.921,19.922A3.366,3.366,0,0,1,128.292,162.939Z"/><polygon class="cls-6" points="105.004 100.271 69.066 100.271 71.252 126.64 70.203 146.473 88.128 157.885 92.354 162.944 128.292 162.944 118.524 156.752 111.239 148.495 108.325 146.714 105.896 130.687 105.734 111.422 105.004 100.271"/><path class="cls-5" d="M92.354,162.939A26.684,26.684,0,0,1,65.7,136.286V103.639a3.366,3.366,0,0,1,6.732,0v32.653a19.944,19.944,0,0,0,19.921,19.922A3.366,3.366,0,0,1,92.354,162.939Z"/><polygon class="cls-7" points="150.185 201.315 149.901 182.02 140.107 181.5 140.377 202.225 149.823 202.285 150.185 201.315"/><path class="cls-8" d="M139.009,198.17s8.1,3.331,11.9-1.92l16.676,10.13-31.087-.2Z"/><rect class="cls-3" x="150.601" y="192.167" width="2.863" height="31.087" transform="translate(-56.653 358.402) rotate(-89.631)"/><path class="cls-3" d="M150.708,200.681a0.546,0.546,0,0,0,.227-0.173,11.344,11.344,0,0,1,2.563-2.5,0.507,0.507,0,0,0,.178-0.694l0-.006h0l-0.019-.028a0.572,0.572,0,0,0-.76-0.145,12.171,12.171,0,0,0-2.844,2.754,0.507,0.507,0,0,0,.094.711h0l0.028,0.02A0.574,0.574,0,0,0,150.708,200.681Z"/><path class="cls-3" d="M153.384,202.02a0.547,0.547,0,0,0,.227-0.173,11.339,11.339,0,0,1,2.563-2.5,0.507,0.507,0,0,0,.178-0.694l0-.006h0l-0.019-.028a0.57,0.57,0,0,0-.76-0.146,12.171,12.171,0,0,0-2.844,2.754,0.507,0.507,0,0,0,.095.711h0l0.027,0.019A0.574,0.574,0,0,0,153.384,202.02Z"/><path class="cls-3" d="M156.059,203.357a0.546,0.546,0,0,0,.227-0.173,11.351,11.351,0,0,1,2.563-2.5,0.507,0.507,0,0,0,.178-0.694l0-.006h0L159,199.956a0.57,0.57,0,0,0-.76-0.145,12.178,12.178,0,0,0-2.844,2.754,0.507,0.507,0,0,0,.095.711h0l0.027,0.019A0.574,0.574,0,0,0,156.059,203.357Z"/><path class="cls-9" d="M114.43,137.179l4.592,3.846c-1.34,8.212-5.767,15.669,2.554,15.669H136.33v33.924l16.555,0.221,0.924-41.561A11.83,11.83,0,0,0,142.2,137.229h-0.2Z"/><rect class="cls-10" x="135.281" y="184.42" width="19.045" height="6.42"/><polygon class="cls-7" points="123.665 201.315 123.381 182.02 113.587 181.5 113.857 202.225 123.302 202.285 123.665 201.315"/><path class="cls-8" d="M112.488,198.17s8.1,3.331,11.9-1.92l16.677,10.13-31.087-.2Z"/><rect class="cls-3" x="124.078" y="192.168" width="2.863" height="31.087" transform="translate(-83.006 331.88) rotate(-89.631)"/><path class="cls-3" d="M124.188,200.681a0.546,0.546,0,0,0,.227-0.173,11.344,11.344,0,0,1,2.563-2.5,0.507,0.507,0,0,0,.178-0.694l0-.006h0l-0.019-.028a0.572,0.572,0,0,0-.76-0.145,12.167,12.167,0,0,0-2.844,2.754,0.507,0.507,0,0,0,.094.711h0l0.028,0.02A0.574,0.574,0,0,0,124.188,200.681Z"/><path class="cls-3" d="M126.864,202.02a0.547,0.547,0,0,0,.227-0.173,11.341,11.341,0,0,1,2.563-2.5,0.507,0.507,0,0,0,.178-0.694l0-.006h0l-0.019-.028a0.57,0.57,0,0,0-.76-0.146,12.171,12.171,0,0,0-2.844,2.754,0.507,0.507,0,0,0,.095.711h0l0.027,0.019A0.574,0.574,0,0,0,126.864,202.02Z"/><path class="cls-3" d="M129.539,203.357a0.546,0.546,0,0,0,.227-0.173,11.351,11.351,0,0,1,2.563-2.5,0.507,0.507,0,0,0,.178-0.694l0-.006h0l-0.019-.028a0.57,0.57,0,0,0-.76-0.145,12.173,12.173,0,0,0-2.844,2.754,0.507,0.507,0,0,0,.095.711h0L129,203.3A0.574,0.574,0,0,0,129.539,203.357Z"/><path class="cls-9" d="M93.594,137.179l-0.627,3.846a13.5,13.5,0,0,0,13.32,15.669h3.988v33.924l16.555,0.221,0.924-41.561a11.829,11.829,0,0,0-11.6-12.049h-0.2Z"/><rect class="cls-10" x="109.226" y="184.42" width="19.045" height="6.42"/><polygon class="cls-11" points="134.773 122.582 157.079 127.278 158.281 131.753 129.073 132.167 126.733 120.037 134.773 122.582"/><path class="cls-11" d="M153.692,127.016s4.561-2.768,9.081-1.613c2.98,0.762,5.933,3.627,5.7,6.694h0l-18.145-.232Z"/><path class="cls-11" d="M136.049,106.458l2.575,19.1s-11.149,5.867-10.915,5.162-2.5-24.258-2.5-24.258H136.05v0Z"/><path class="cls-12" d="M126.09,90.659s8.183,1.288,10.05,8.272c2.432,9.1,3.359,10.412,3.359,10.412l-12.374,1.8Z"/><path class="cls-12" d="M110.361,88.339l15.729,2.319a3.275,3.275,0,0,1,2.8,3.208l0.374,37.313-35.091.1-2.381-32.55,1.3-4.413a5.587,5.587,0,0,1,4.475-3.933Z"/><polygon class="cls-7" points="100.061 109.215 93.49 126.202 83.355 117.38 87.288 105.158 100.061 109.215"/><path class="cls-12" d="M106.457,89.658s-12.214-.109-15.25,3.5c-3.824,4.543-8.361,16.154-8.361,16.154l19.863,4.376Z"/><path class="cls-7" d="M94.624,123.366l22.921,5.105-0.944,5.076-27.085.181S77.4,131.284,83.354,117.38Z"/><path class="cls-7" d="M117.546,128.471s5.386-2.108,9.847-1.275a6.12,6.12,0,0,1,4.833,6.528h0l-18-.165Z"/><line class="cls-13" x1="94.624" y1="123.366" x2="88.965" y2="122.582"/><path class="cls-8" d="M120.864,60.56s6.236,5.86.094,7.985Z"/><path class="cls-14" d="M117.147,71a4.267,4.267,0,0,0,4.056,4.44,4.221,4.221,0,0,0,4.289-4.152h0V71.263a4.266,4.266,0,0,0-4.056-4.44,4.221,4.221,0,0,0-4.289,4.152h0V71Z"/><path class="cls-7" d="M116.015,80.189l0.327,8.31c0.121,2.918-1.557,4.543-4.34,4.625h0c-2.376.069-5.03-.98-5.027-3.556l0.1-13.1Z"/><path class="cls-15" d="M116.25,85.714s-6.747.837-9.149-6.7c-0.756-2.375,8.9.324,8.9,0.324Z"/><path class="cls-7" d="M113.615,82.707h0c4.746-.176,8.51-4.193,8.49-8.2l-0.09-8.383a9.2,9.2,0,0,0-8.764-9.283h0c-4.978-.157-10,3.854-10.137,8.993l0.145,6.531A10.448,10.448,0,0,0,113.615,82.707Z"/><polyline class="cls-16" points="117.117 72.237 117.343 73.85 116.171 73.942"/><path class="cls-8" d="M111.848,67.339s1.937-.243,1.989.573c0,0,.021.553-1.671,0.731s-2.138.067-2.313-.446S110.937,67.382,111.848,67.339Z"/><path class="cls-8" d="M119.691,67.069s-1.611-.106-1.712.666c0,0-.055.523,1.354,0.584s1.859-.142,1.975-0.567C121.439,67.27,120.454,67.05,119.691,67.069Z"/><ellipse class="cls-8" cx="119.501" cy="70.513" rx="0.817" ry="0.843" transform="translate(-0.45 0.769) rotate(-0.368)"/><ellipse class="cls-8" cx="112.34" cy="70.555" rx="0.817" ry="0.843" transform="translate(-0.447 0.717) rotate(-0.365)"/><line class="cls-16" x1="115.293" y1="76.774" x2="117.467" y2="76.468"/><path class="cls-8" d="M127.006,57.739l-3.6-.51c1.052-.669,2.106-1.334,2.106-1.334a19.273,19.273,0,0,0-5.728-.842,16.993,16.993,0,0,0-7.72-1.973c-4.181-.051-7.751,2.215-9.041,4.711h0a3.83,3.83,0,0,0-3.946,3.71h0c-0.617,5.091,5.51,13.5,5.51,13.5l0.687-6.651c3.8-.272,3.975-3.622,3.677-5.807a45.912,45.912,0,0,0,12.212-.493,5.326,5.326,0,0,0,1.76-.487C125.093,60.816,126.715,59.622,127.006,57.739Z"/><path class="cls-17" d="M98.9,72.372a3.413,3.413,0,0,0,3.244,3.551,3.376,3.376,0,0,0,3.431-3.32v-0.02a3.413,3.413,0,0,0-3.244-3.551,3.376,3.376,0,0,0-3.431,3.32v0.02Z"/><path class="cls-18" d="M103.351,73.339s0.064-2.5-2.257-2.177"/><path class="cls-14" d="M115.188,52.956l0.1,0.481s-6.03.634-8.779,4.3c-3.064,4.086-3.112,9.6-3.112,9.6l-1.3.11,0.087-8.737,2.613-2.724,4.165-2.491,2.915-.932Z"/><path class="cls-14" d="M107.031,70.512c0.623,2.871-1.23,5.71-4.871,6.5-2.575.559-3.831-1.606-4.454-4.477A4.8,4.8,0,1,1,107.031,70.512Z"/><ellipse class="cls-14" cx="101.008" cy="71.79" rx="4.77" ry="5.318" transform="translate(-12.926 23.052) rotate(-12.243)"/><path class="cls-14" d="M100.225,67.225a20.341,20.341,0,0,1,.262-6.681,10.918,10.918,0,0,1,8.94-8.375q0.509-.093,1.073-0.169a6.76,6.76,0,0,1,3.86.442,4.624,4.624,0,0,1,.829.513s-5.857.243-8.676,3.375A16.168,16.168,0,0,0,102.7,67.76Z"/><path class="cls-7" d="M103.753,89.4l6.608-1.059,8.789,1.3s0.54,5.128-6.891,5.344S103.753,89.4,103.753,89.4Z"/><polygon class="cls-19" points="143.693 114.841 146.814 117.082 168.949 98.398 222.851 68.641 219.94 66.529 182.964 77.889 143.693 114.841"/><path class="cls-20" d="M151.338,68.252l-8.775,43.6a3.014,3.014,0,0,0,2.955,3.608h63.167a3.014,3.014,0,0,0,2.947-2.383l9.332-43.6a3.014,3.014,0,0,0-2.947-3.645H154.293A3.014,3.014,0,0,0,151.338,68.252Z"/><path class="cls-21" d="M154.187,70.308l-8.772,43.6a3.014,3.014,0,0,0,2.955,3.608h63.167a3.014,3.014,0,0,0,2.947-2.383l9.332-43.6a3.014,3.014,0,0,0-2.947-3.645H157.141A3.014,3.014,0,0,0,154.187,70.308Z"/><polygon class="cls-22" points="177.182 105.986 176.003 117.514 181.13 117.514 177.182 105.986"/><polygon class="cls-6" points="177.182 105.748 182.413 131.563 201.482 131.563 192.538 105.748 177.182 105.748"/><circle class="cls-3" cx="187.196" cy="85.893" r="4.232"/><path class="cls-6" d="M212.762,129.16H167.815a1.247,1.247,0,0,0-1.247,1.247h0a1.247,1.247,0,0,0,1.247,1.247h44.951a1.247,1.247,0,0,0,1.247-1.247h0a1.247,1.247,0,0,0-1.247-1.247h0Z"/><path class="cls-23" d="M156.723,129.16H132.915a1.247,1.247,0,0,0-1.247,1.247h0a1.247,1.247,0,0,0,1.247,1.247h23.807a1.247,1.247,0,0,0,1.247-1.247h0A1.247,1.247,0,0,0,156.723,129.16Z"/><line class="cls-24" x1="127.301" y1="135.627" x2="127.301" y2="209.243"/><line class="cls-24" x1="80.642" y1="135.627" x2="80.642" y2="209.243"/><line class="cls-24" x1="240.534" y1="135.627" x2="240.534" y2="209.243"/><line class="cls-24" x1="193.875" y1="135.627" x2="193.875" y2="209.243"/><rect class="cls-25" x="69.793" y="131.563" width="44.142" height="5.92"/><rect class="cls-3" x="113.851" y="131.563" width="138.681" height="5.92"/><line class="cls-26" x1="241.165" y1="209.243" x2="42.379" y2="209.243"/></svg>