<svg id="Layer_4" data-name="Layer 4" xmlns="http://www.w3.org/2000/svg" viewBox="0 0 259.808 235.774"><defs><style>.cls-1{fill:#d1e2ed;}.cls-2{fill:#e9f2f9;}.cls-3{fill:#455a64;}.cls-4{fill:#fff;}.cls-5{fill:#e4e4f4;}.cls-10,.cls-12,.cls-15,.cls-16,.cls-17,.cls-20,.cls-23,.cls-26,.cls-27,.cls-28,.cls-29,.cls-6{fill:none;}.cls-6{stroke:#bababa;}.cls-15,.cls-16,.cls-20,.cls-23,.cls-27,.cls-29,.cls-6{stroke-miterlimit:10;}.cls-15,.cls-6{stroke-width:0.844px;}.cls-7{fill:#6c62ff;}.cls-8{fill:#c35f54;}.cls-9{fill:#3d3d3d;}.cls-10,.cls-12,.cls-16,.cls-26,.cls-28{stroke:#263238;}.cls-10,.cls-12,.cls-17,.cls-26,.cls-28{stroke-linecap:round;stroke-linejoin:round;}.cls-10{stroke-width:0.578px;}.cls-11{fill:#263238;}.cls-12{stroke-width:0.519px;}.cls-13{fill:#3f3d55;}.cls-14{fill:#f6b9bd;}.cls-15{stroke:#4c5356;}.cls-16,.cls-29{stroke-width:1.147px;}.cls-17{stroke:#aeaeff;stroke-width:0.98px;}.cls-18{fill:#f9b0a3;}.cls-19{fill:#ff6484;}.cls-20{stroke:#cc4c59;stroke-width:1.02px;}.cls-21{fill:#ffc1b2;}.cls-22{fill:#d0d0ea;}.cls-23{stroke:#bcbce8;stroke-width:0.76px;}.cls-24{fill:#f1998a;}.cls-25{fill:#ef9d8e;}.cls-26{stroke-width:0.527px;}.cls-27{stroke:#fff;stroke-width:0.49px;}.cls-28{stroke-width:0.558px;}.cls-29{stroke:#9fa5a8;}</style></defs><title>details-1</title><path class="cls-1" d="M29.446,58.018C10.672,86.5-5.124,128.645,2.506,162.025c17.82,77.961,132.494,75.56,191.048,46.224,37.213-18.642,66.7-56.6,65.388-96.972-0.853-26.266-14.385-50.731-33.151-69.072C166.022-16.219,78.737-16.75,29.446,58.018Z" transform="translate(0 0)"/><path class="cls-2" d="M69.559,26.948C41.014,44.7,9.318,76.219,1.936,110-15.307,188.881,86.6,236.877,150.508,235.754c40.614-.713,82.588-22.424,98.481-59.806,10.341-24.324,8.766-52.554,0-77.49C221.073,19.027,144.5-19.656,69.559,26.948Z" transform="translate(0 0)"/><path class="cls-3" d="M213.35,163.417H182.757a3.227,3.227,0,0,1-3.227-3.227h0a3.227,3.227,0,0,1,3.227-3.227H213.35a3.227,3.227,0,0,1,3.227,3.227h0a3.227,3.227,0,0,1-3.227,3.227h0Z" transform="translate(0 0)"/><path class="cls-3" d="M234.4,163.417H198.3a3.739,3.739,0,0,1-3.536-4.813L212,99.174a3.7,3.7,0,0,1,3.536-2.689h36.1a3.74,3.74,0,0,1,3.536,4.813l-17.237,59.429A3.7,3.7,0,0,1,234.4,163.417Z" transform="translate(0 0)"/><path class="cls-4" d="M229.432,163.417H197.986a3.739,3.739,0,0,1-3.536-4.813l17.241-59.429a3.7,3.7,0,0,1,3.536-2.689h31.446a3.739,3.739,0,0,1,3.536,4.813l-17.242,59.428A3.7,3.7,0,0,1,229.432,163.417Z" transform="translate(0 0)"/><path class="cls-3" d="M234.39,163.417H196.178a3.227,3.227,0,0,1-3.227-3.227h0a3.227,3.227,0,0,1,3.227-3.227H234.39a3.227,3.227,0,0,1,3.227,3.227h0a3.227,3.227,0,0,1-3.227,3.227h0Z" transform="translate(0 0)"/><path class="cls-5" d="M188.7,93.666a153.33,153.33,0,0,0-14.568,25.6,5.054,5.054,0,0,0,.4,4.779h0c2.1,3.195,7.587,2.457,9.7-.513,0,0,16.144-22.353,15.456-23.257C199.524,100.056,188.7,93.666,188.7,93.666Z" transform="translate(0 0)"/><path class="cls-5" d="M178.7,115.2l-21.152-8.508-1.832,11.071,21.3,8.1a4.22,4.22,0,0,0,2.413.2,5.507,5.507,0,0,0,4.2-6.3h0A5.48,5.48,0,0,0,178.7,115.2Z" transform="translate(0 0)"/><path class="cls-5" d="M205.19,90.949l-14.642,1.878a2.78,2.78,0,0,0-2.412,3.032L197.6,136.9l31.426-.075L224.573,96a2.78,2.78,0,0,0-2.418-3.1H222.12Z" transform="translate(0 0)"/><path class="cls-6" d="M192.282,112.927c0-.489-2.626-10.469-2.626-10.469" transform="translate(0 0)"/><path class="cls-7" d="M199.64,131.959H174.313V129.1H199.64a1.429,1.429,0,0,1,1.429,1.429h0a1.429,1.429,0,0,1-1.429,1.429h0Z" transform="translate(0 0)"/><path class="cls-7" d="M177.647,131.959H141.285a4.3,4.3,0,0,1-4.147-3.151L130.593,105.3a3.262,3.262,0,0,1,3.142-4.136h33.626a2.84,2.84,0,0,1,2.746,2.118Z" transform="translate(0 0)"/><circle class="cls-4" cx="152.638" cy="117.876" r="3.175"/><path class="cls-5" d="M212.069,100.816a263.234,263.234,0,0,0,16.989,28.539c1.01,1.427,3.394,2.137,5.141,2.062h0c3.943-.17,5.614-4.418,4.124-7.874,0,0-12.621-29.166-14.368-29.643C223.686,93.827,212.069,100.816,212.069,100.816Z" transform="translate(0 0)"/><polygon class="cls-8" points="202.95 125.758 209.812 125.229 209.598 132.096 203.658 132.093 202.95 125.758"/><path class="cls-8" d="M203.457,125.758s-15.733-6.065-13.985,6.326h15.1Z" transform="translate(0 0)"/><path class="cls-5" d="M232.5,120.783l-24.666.742,0.48,11.043,25.628-.54a5.669,5.669,0,0,0,4.519-7.7h0A5.669,5.669,0,0,0,232.5,120.783Z" transform="translate(0 0)"/><polyline class="cls-6" points="216.824 106.913 223.349 121.058 207.836 121.525 207.821 125.229"/><line class="cls-6" x1="223.349" y1="121.058" x2="226.795" y2="122.748"/><path class="cls-9" d="M195.079,74.474a3.176,3.176,0,0,1-2.588,3.653,3.142,3.142,0,0,1-3.55-2.672V75.436a3.176,3.176,0,0,1,2.588-3.653,3.143,3.143,0,0,1,3.551,2.674h0v0.017h0Z" transform="translate(0 0)"/><path class="cls-8" d="M199.447,83.021l0.728,8.589c0.25,3.017,2.183,4.473,5.056,4.2h0c2.453-.233,5.048-1.652,4.715-4.3l-1.775-13.46Z" transform="translate(0 0)"/><path class="cls-8" d="M201.5,85.727h0c-4.9.427-9.289-3.222-9.783-7.346l-0.986-8.632a9.54,9.54,0,0,1,7.824-10.67h0c5.1-.8,10.776,2.683,11.578,7.951l0.687,6.736A10.828,10.828,0,0,1,201.5,85.727Z" transform="translate(0 0)"/><polyline class="cls-10" points="196.561 75.173 196.533 77.098 197.749 77.042"/><path class="cls-11" d="M201.5,69.965s-2.023,0-1.973.844c0,0,.05.572,1.812,0.538s2.207-.2,2.322-0.755S202.438,69.891,201.5,69.965Z" transform="translate(0 0)"/><path class="cls-11" d="M193.249,70.427s1.644-.316,1.846.466c0,0,.124.53-1.318,0.774s-1.93.092-2.1-.33C191.477,70.855,192.462,70.5,193.249,70.427Z" transform="translate(0 0)"/><path class="cls-10" d="M199.773,73.77a2.166,2.166,0,0,1,2.606,0" transform="translate(0 0)"/><path class="cls-10" d="M194.882,74.2a1.514,1.514,0,0,0-2.137.125l-0.063.075" transform="translate(0 0)"/><path class="cls-9" d="M205.178,62.751s-2.306,2.96,2.281,6.551c0,0-.779,7.417-1.781,9.307,0,0-9.294-1.9-13.653,1.135,0,0,.15,6.481,7.79,6.79,10.16,0.411,11.23-9.917,11.23-9.917l-2.12-4.99,3.467,0.471s7.046-10.644-3.941-10.644Z" transform="translate(0 0)"/><path class="cls-8" d="M214.562,72.963a3.176,3.176,0,0,1-2.588,3.653,3.143,3.143,0,0,1-3.551-2.674h0V73.925a3.176,3.176,0,0,1,2.588-3.653,3.143,3.143,0,0,1,3.551,2.674h0v0.017Z" transform="translate(0 0)"/><path class="cls-12" d="M210.559,74.37s-0.35-2.3,1.834-2.271" transform="translate(0 0)"/><path class="cls-9" d="M205.631,63.207a126.461,126.461,0,0,1-13.623.108s-5.063-1.9-2.963-4.969c1.661-2.429,5.678-.447,5.678-0.447s-0.068-2.5,1.7-3.186c2.114-.817,8.29-1.478,13.554,6.9Z" transform="translate(0 0)"/><path class="cls-8" d="M200.088,91.6l-2.712.349s-1.211,4.532,5.081,4.987c6.557,0.474,9.142-1.952,10.409-5.19l-7.22-1.417Z" transform="translate(0 0)"/><rect class="cls-8" x="174.545" y="186.68" width="9.255" height="12.511" transform="translate(-0.77 0.718) rotate(-0.229)"/><path class="cls-13" d="M204.792,136.827l0.651,3.989a14,14,0,0,1-13.816,16.252h-4.136v35.187l-17.171.23-0.958-43.108a12.27,12.27,0,0,1,12.036-12.5h0.2Z" transform="translate(0 0)"/><path class="cls-9" d="M183.857,197.433c-2.178.581-7.165,2.119-9.477-1.232l-15.629,8.469,27.591-.181-1.228-6.227A1.007,1.007,0,0,0,183.857,197.433Z" transform="translate(0 0)"/><rect class="cls-14" x="158.847" y="204.514" width="27.592" height="2.391" transform="translate(-1.436 1.214) rotate(-0.401)"/><path class="cls-4" d="M174.543,199.9a0.439,0.439,0,0,1-.181-0.144,9.2,9.2,0,0,0-2.037-2.086,0.437,0.437,0,0,1,.483-0.727,9.874,9.874,0,0,1,2.261,2.3A0.437,0.437,0,0,1,174.543,199.9Z" transform="translate(0 0)"/><path class="cls-4" d="M172.418,201.021a0.438,0.438,0,0,1-.181-0.144,9.2,9.2,0,0,0-2.037-2.086,0.437,0.437,0,0,1,.483-0.727,9.882,9.882,0,0,1,2.261,2.3A0.437,0.437,0,0,1,172.418,201.021Z" transform="translate(0 0)"/><path class="cls-4" d="M170.293,202.139a0.437,0.437,0,0,1-.181-0.144,9.216,9.216,0,0,0-2.037-2.085,0.437,0.437,0,0,1,.483-0.727,9.88,9.88,0,0,1,2.261,2.3A0.437,0.437,0,0,1,170.293,202.139Z" transform="translate(0 0)"/><rect class="cls-8" x="198.777" y="186.677" width="9.255" height="12.511" transform="matrix(1, -0.004, 0.004, 1, -0.77, 0.815)"/><path class="cls-9" d="M207.941,196.908c-2.178.581-7.107,2.482-9.419-.869l-15.629,8.469,27.591-.181-1.286-6.59A1.007,1.007,0,0,0,207.941,196.908Z" transform="translate(0 0)"/><rect class="cls-14" x="182.99" y="204.341" width="27.592" height="2.391" transform="translate(-1.434 1.383) rotate(-0.401)"/><path class="cls-4" d="M198.685,199.74a0.438,0.438,0,0,1-.181-0.144,9.21,9.21,0,0,0-2.037-2.086,0.437,0.437,0,0,1,.483-0.727,9.875,9.875,0,0,1,2.261,2.3A0.437,0.437,0,0,1,198.685,199.74Z" transform="translate(0 0)"/><path class="cls-4" d="M196.559,200.859a0.438,0.438,0,0,1-.18-0.144,9.207,9.207,0,0,0-2.037-2.086,0.437,0.437,0,0,1,.483-0.727,9.875,9.875,0,0,1,2.261,2.3A0.437,0.437,0,0,1,196.559,200.859Z" transform="translate(0 0)"/><path class="cls-4" d="M194.435,201.977a0.436,0.436,0,0,1-.181-0.144,9.213,9.213,0,0,0-2.037-2.085,0.437,0.437,0,0,1,.483-0.727,9.886,9.886,0,0,1,2.261,2.3A0.437,0.437,0,0,1,194.435,201.977Z" transform="translate(0 0)"/><path class="cls-13" d="M229.022,136.827l0.651,3.989a14,14,0,0,1-13.816,16.252H211.72v35.187l-17.171.23-0.958-43.108a12.27,12.27,0,0,1,12.036-12.5h0.2Z" transform="translate(0 0)"/><path class="cls-15" d="M193.428,156.963v-8.222a12.146,12.146,0,0,1,12.083-12.187l3.06-.005" transform="translate(0 0)"/><polyline class="cls-16" points="153.909 207.83 129.276 134.631 109.451 206.94"/><polyline class="cls-16" points="257.468 207.83 232.835 134.631 213.01 206.94"/><rect class="cls-4" x="93.229" y="131.971" width="166.579" height="4.959"/><path class="cls-4" d="M161.857,67.316h-41.4a2.091,2.091,0,0,1-2.091-2.091h0v-13.8a2.091,2.091,0,0,1,2.091-2.091h41.4a2.09,2.09,0,0,1,2.09,2.09v13.8A2.091,2.091,0,0,1,161.857,67.316Z" transform="translate(0 0)"/><line class="cls-17" x1="155.925" y1="56.227" x2="125.63" y2="56.227"/><line class="cls-17" x1="136.104" y1="61.005" x2="125.731" y2="61.005"/><polygon class="cls-4" points="157.542 64.923 157.542 73.053 147.179 64.923 157.542 64.923"/><polygon class="cls-18" points="86.057 78.719 92.415 103.853 104.852 125.367 100.563 128.988 82.934 106.913 75.893 86.568 86.057 78.719"/><path class="cls-18" d="M104.852,125.367l11.048,3.26a3.015,3.015,0,0,1,2.359,1.763,2.175,2.175,0,0,1-.164,1.55l-0.012.026a2.264,2.264,0,0,1-2.483,1.261l-9.221-1.208,1.385,2.388a1.211,1.211,0,0,1-.026,1.4h0a1.211,1.211,0,0,1-1.645.292l-3.243-2.15a4.1,4.1,0,0,1-1.735-2.513l-0.555-2.443,1.309-3.621h2.98Z" transform="translate(0 0)"/><polygon class="cls-19" points="87.167 74.218 91.433 89.668 77.949 95.82 82.183 83.232 87.167 74.218"/><path class="cls-19" d="M70.779,66.682s-12.955-4.772-20.471,8.9-13.534,43.354-13.534,43.354l33.5,2.8L83.4,83.452c1.652-3.535,5.77-8.109,2.848-10.7a15.187,15.187,0,0,0-5.663-3.025Z" transform="translate(0 0)"/><line class="cls-20" x1="79.387" y1="95.164" x2="83.192" y2="84.068"/><path class="cls-21" d="M76.485,101.094L62.876,72.278,52.285,87.846l14.88,20.392a6.794,6.794,0,0,0,5.794,2.782l28.373-1.278,3.681-4.938Z" transform="translate(0 0)"/><path class="cls-21" d="M105.012,104.8l12.3,0.718,5.023,1.685a1.1,1.1,0,0,1,.706,1.342h0a1.1,1.1,0,0,1-1.339.759l-4.946-1.324-3.488-.277,1.5,1.352a4.955,4.955,0,0,1,1.473,2.425l0.209,0.8a2.137,2.137,0,0,1-1.489,2.6l-2.425.682a2.137,2.137,0,0,1-2.556-1.247l-0.76-1.852-2.35-1.183a7.126,7.126,0,0,1-6.3-1.534c-2.579-2.167.3-2.808,0.568-2.929S105.012,104.8,105.012,104.8Z" transform="translate(0 0)"/><polygon class="cls-19" points="64.238 70.155 75.893 90.118 57.769 102.981 48.508 83.178 64.238 70.155"/><polyline class="cls-20" points="52.711 92.993 58.207 102.666 61.413 100.355"/><line class="cls-20" x1="72.278" y1="92.683" x2="64.842" y2="78.719"/><polygon class="cls-21" points="89.782 198.934 88.653 176.734 78.649 178.467 81.432 201.401 90.028 199.759 89.782 198.934"/><path class="cls-9" d="M80.183,197s7.146,2.969,10.508-1.832l17.358,9.065L77.96,204.3Z" transform="translate(0 0)"/><polygon class="cls-14" points="108.028 206.839 77.94 206.905 77.96 204.302 108.049 204.236 108.028 206.839"/><path class="cls-4" d="M90.508,199.2a0.491,0.491,0,0,0,.2-0.159,10.274,10.274,0,0,1,2.264-2.29,0.471,0.471,0,0,0,.14-0.651l-0.006-.009a0.493,0.493,0,0,0-.671-0.127,11.023,11.023,0,0,0-2.512,2.525,0.468,0.468,0,0,0,.1.654h0l0.011,0.008A0.493,0.493,0,0,0,90.508,199.2Z" transform="translate(0 0)"/><path class="cls-4" d="M92.868,200.4a0.491,0.491,0,0,0,.2-0.159,10.27,10.27,0,0,1,2.264-2.29,0.471,0.471,0,0,0,.14-0.651l-0.006-.009a0.492,0.492,0,0,0-.671-0.127,11.022,11.022,0,0,0-2.512,2.525,0.468,0.468,0,0,0,.1.654h0l0.011,0.008A0.493,0.493,0,0,0,92.868,200.4Z" transform="translate(0 0)"/><path class="cls-4" d="M95.228,201.594a0.49,0.49,0,0,0,.2-0.159,10.28,10.28,0,0,1,2.264-2.289,0.471,0.471,0,0,0,.14-0.651l-0.006-.009a0.491,0.491,0,0,0-.671-0.127,11.032,11.032,0,0,0-2.513,2.524,0.468,0.468,0,0,0,.1.654h0l0.011,0.008A0.493,0.493,0,0,0,95.228,201.594Z" transform="translate(0 0)"/><path class="cls-22" d="M70.273,121.738l18.681,27.814c1.97,3.449,1.834,4.632,2.094,8.6l1.946,33.554-16.463,1.111-4.137-33.312L52.017,126.647,51,120.06Z" transform="translate(0 0)"/><polygon class="cls-21" points="44.663 200.438 50.543 177.485 40.539 179.218 36.084 200.438 44.258 201.401 44.663 200.438"/><path class="cls-9" d="M35.7,197s7.146,2.969,10.508-1.832l17.357,9.065-30.088.066Z" transform="translate(0 0)"/><polygon class="cls-14" points="63.542 206.839 33.454 206.905 33.474 204.302 63.562 204.236 63.542 206.839"/><path class="cls-4" d="M46.022,199.2a0.491,0.491,0,0,0,.2-0.159,10.274,10.274,0,0,1,2.264-2.29,0.471,0.471,0,0,0,.14-0.651l-0.006-.009a0.493,0.493,0,0,0-.671-0.127,11.024,11.024,0,0,0-2.512,2.525,0.468,0.468,0,0,0,.1.654h0l0.011,0.008A0.493,0.493,0,0,0,46.022,199.2Z" transform="translate(0 0)"/><path class="cls-4" d="M48.382,200.4a0.491,0.491,0,0,0,.2-0.159,10.274,10.274,0,0,1,2.264-2.29,0.471,0.471,0,0,0,.14-0.651l-0.006-.009a0.492,0.492,0,0,0-.671-0.127A11.022,11.022,0,0,0,47.8,199.69a0.468,0.468,0,0,0,.1.654h0l0.011,0.008A0.493,0.493,0,0,0,48.382,200.4Z" transform="translate(0 0)"/><path class="cls-4" d="M50.742,201.594a0.491,0.491,0,0,0,.2-0.159,10.28,10.28,0,0,1,2.264-2.289,0.471,0.471,0,0,0,.14-0.651l-0.006-.009a0.491,0.491,0,0,0-.671-0.127,11.033,11.033,0,0,0-2.513,2.524,0.468,0.468,0,0,0,.1.654h0l0.011,0.008A0.493,0.493,0,0,0,50.742,201.594Z" transform="translate(0 0)"/><polyline class="cls-23" points="61.582 141.011 61.556 137.082 66.95 130.807"/><path class="cls-22" d="M37.712,119.013s-4.406,9.374,1.168,22.167c0.213,0.49.428,0.93,0.643,1.348l2.265,19.426-7.775,31.353,17.134,0.2,9.246-27.589a22.6,22.6,0,0,0,.665-4.22L60.82,126.1l4.022-4.839Z" transform="translate(0 0)"/><path class="cls-11" d="M93.641,46.618s3.706,7.724-2.8,7.489Z" transform="translate(0 0)"/><path class="cls-24" d="M86.392,56.005a3.45,3.45,0,0,0,1.763,4.531A3.413,3.413,0,0,0,92.6,58.655l0.008-.019A3.45,3.45,0,0,0,90.845,54.1,3.413,3.413,0,0,0,86.4,55.986Z" transform="translate(0 0)"/><path class="cls-21" d="M82.022,63.192l-2.7,7.877c-0.941,2.768-3.094,3.679-5.723,2.75h0c-2.243-.794-4.342-2.732-3.409-5.136l4.82-12.2Z" transform="translate(0 0)"/><path class="cls-25" d="M80.247,68.436s-6.6-1.656-6.121-9.562c0.152-2.49,8.188,3.516,8.188,3.516Z" transform="translate(0 0)"/><path class="cls-21" d="M78.873,64.677h0c4.494,1.55,9.459-.841,10.889-4.589l2.948-7.861a9.214,9.214,0,0,0-4.829-11.833h0c-4.591-1.944-10.727-.013-12.713,4.735L72.945,51.28A10.459,10.459,0,0,0,78.873,64.677Z" transform="translate(0 0)"/><polyline class="cls-26" points="85.949 56.065 85.552 57.754 84.425 57.417"/><path class="cls-11" d="M83.636,47.972s1.9,0.473,1.65,1.254c0,0-.18.524-1.824,0.079s-2.02-.709-2-1.252S82.77,47.682,83.636,47.972Z" transform="translate(0 0)"/><path class="cls-11" d="M91.055,50.893s-1.466-.681-1.838,0c0,0-.24.468,1.053,1.034s1.787,0.539,2.049.184C92.615,51.713,91.775,51.151,91.055,50.893Z" transform="translate(0 0)"/><ellipse class="cls-11" cx="88.772" cy="55.419" rx="0.844" ry="0.818" transform="matrix(0.355, -0.935, 0.935, 0.355, 5.459, 118.749)"/><ellipse class="cls-11" cx="82.088" cy="52.872" rx="0.844" ry="0.818" transform="translate(3.521 110.848) rotate(-69.209)"/><circle class="cls-27" cx="90.447" cy="56.064" r="3.849" transform="translate(5.525 120.19) rotate(-68.85)"/><circle class="cls-27" cx="82.188" cy="52.87" r="3.849" transform="translate(-14.359 37.746) rotate(-23.849)"/><line class="cls-27" x1="78.598" y1="51.481" x2="75.209" y2="50.17"/><line class="cls-27" x1="85.489" y1="54.953" x2="86.569" y2="55.371"/><path class="cls-26" d="M81.252,58.269s0.821,1.646,3.935,1.646" transform="translate(0 0)"/><path class="cls-9" d="M72.955,39.627a3.834,3.834,0,0,1,5.022-2.045h0c2.106-1.864,6.258-2.69,10.143-1.132,5.265,2.111,9.011,6.807,8.84,9.93s-4.26,1.529-4.26,1.529a94.684,94.684,0,0,1-10.876-3.87c-0.487,2.15-1.845,5.362-5.562,4.221l-3.044,5.961S70.54,44.158,72.955,39.627Z" transform="translate(0 0)"/><path class="cls-21" d="M68.865,49.711A3.416,3.416,0,0,0,70.611,54.2a3.38,3.38,0,0,0,4.4-1.862l0.007-.018a3.416,3.416,0,0,0-1.744-4.491,3.38,3.38,0,0,0-4.4,1.865Z" transform="translate(0 0)"/><path class="cls-28" d="M72.674,52.227s0.965-2.308-1.32-2.849" transform="translate(0 0)"/><path class="cls-21" d="M68.133,66.021l8.1,1.89,5.584,2.243s-1.582,5.494-6.613,4.584C65.935,73.062,68.133,66.021,68.133,66.021Z" transform="translate(0 0)"/><line class="cls-29" x1="257.468" y1="207.473" x2="33.454" y2="207.473"/></svg>