<svg id="Layer_3" data-name="Layer 3" xmlns="http://www.w3.org/2000/svg" xmlns:xlink="http://www.w3.org/1999/xlink" viewBox="0 0 138 40.002"><defs><style>.cls-1{fill:none;}.cls-2{fill:#ff6484;}.cls-3{fill:#f75f50;}.cls-4{clip-path:url(#clip-path);}.cls-5{clip-path:url(#clip-path-2);}.cls-6{clip-path:url(#clip-path-3);}.cls-7{clip-path:url(#clip-path-4);}.cls-8{fill:#3d3d3d;}</style><clipPath id="clip-path" transform="translate(0.002)"><path class="cls-1" d="M38.39,20A19.612,19.612,0,0,1,19.2,40a18.475,18.475,0,0,1-5.619-.872C41.859,36.948,35.692,6.848,28.814,2.691A20.16,20.16,0,0,1,38.39,20"/></clipPath><clipPath id="clip-path-2" transform="translate(0.002)"><path class="cls-1" d="M10.249,37.7c8.2-11.87,5.676-22.159,5.016-22.3a3.25,3.25,0,0,1-3.182,3.314c-2.3,0-3.739-2.545-3.74-4.721a5.2,5.2,0,0,1,5.09-5.3,4.969,4.969,0,0,1,3.6,1.548c4.352,4.534,3.989,12.04.9,18.449C23.211,22.549,33.554,0,19.2,0A19.612,19.612,0,0,0,0,20,20.122,20.122,0,0,0,10.249,37.7"/></clipPath><clipPath id="clip-path-3" transform="translate(0.002)"><path class="cls-1" d="M9.834,10.244a4.939,4.939,0,0,1,7-.193L16.9,10.117q0.064,0.063.125,0.127c4.352,4.534,3.989,12.04.9,18.449A45.4,45.4,0,0,0,25.7,12.939c1.538-6.232-11.784-10.076-15.873-2.7"/></clipPath><clipPath id="clip-path-4" transform="translate(0.002)"><path class="cls-1" d="M10.248,37.7a34.365,34.365,0,0,0,4.68-9.537C1.644,28.093.572,10.546,7.8,3.907A20.5,20.5,0,0,0,4.106,32.3a20,20,0,0,0,6.145,5.4"/></clipPath></defs><title>logo</title><path class="cls-2" d="M38.39,20A19.612,19.612,0,0,1,19.2,40a18.476,18.476,0,0,1-5.619-.871c14.6-10.506,20.358-25.751,15.236-36.438A20.16,20.16,0,0,1,38.39,20" transform="translate(0.002)"/><path class="cls-3" d="M38.39,20A19.612,19.612,0,0,1,19.2,40a18.475,18.475,0,0,1-5.619-.872C41.859,36.948,35.692,6.848,28.814,2.691A20.16,20.16,0,0,1,38.39,20" transform="translate(0.002)"/><g class="cls-4"><rect class="cls-2" x="13.579" y="2.692" width="28.281" height="37.31"/></g><path class="cls-3" d="M10.249,37.7c8.2-11.87,5.676-22.159,5.016-22.3a3.25,3.25,0,0,1-3.182,3.314c-2.3,0-3.739-2.545-3.74-4.721a5.2,5.2,0,0,1,5.09-5.3,4.969,4.969,0,0,1,3.6,1.548c4.352,4.534,3.989,12.04.9,18.449C23.211,22.549,33.554,0,19.2,0A19.612,19.612,0,0,0,0,20,20.122,20.122,0,0,0,10.249,37.7" transform="translate(0.002)"/><g class="cls-5"><rect class="cls-2" x="0.004" width="33.55" height="37.698"/></g><path class="cls-3" d="M9.834,10.244a4.939,4.939,0,0,1,7-.193L16.9,10.117q0.064,0.063.125,0.127c4.352,4.534,3.989,12.04.9,18.449A45.4,45.4,0,0,0,25.7,12.939c1.538-6.232-11.784-10.076-15.873-2.7" transform="translate(0.002)"/><g class="cls-6"><rect class="cls-2" x="9.836" y="2.865" width="17.41" height="25.827"/></g><path class="cls-3" d="M10.248,37.7a34.365,34.365,0,0,0,4.68-9.537C1.644,28.093.572,10.546,7.8,3.907A20.5,20.5,0,0,0,4.106,32.3a20,20,0,0,0,6.145,5.4" transform="translate(0.002)"/><g class="cls-7"><rect class="cls-2" x="0.004" y="3.907" width="14.924" height="33.789"/></g><path class="cls-8" d="M71.083,5.111h6.687L67.152,36.478H59.931L49.334,5.111h6.687L61.9,23.777q0.491,1.652,1.015,3.851t0.652,3.057a55.151,55.151,0,0,1,1.6-6.908Z" transform="translate(0.002)"/><path class="cls-8" d="M80.911,6.291q0-3.2,3.547-3.2T88,6.291a3.124,3.124,0,0,1-.887,2.371,3.717,3.717,0,0,1-2.66.847Q80.911,9.51,80.911,6.291Zm6.794,30.187H81.189V12.492h6.516V36.478Z" transform="translate(0.002)"/><path class="cls-8" d="M111.207,29.355a6.615,6.615,0,0,1-2.553,5.621q-2.553,1.931-7.638,1.931a23.892,23.892,0,0,1-4.444-.354,16.757,16.757,0,0,1-3.44-1.041V30.106a22.653,22.653,0,0,0,4.091,1.437,16.5,16.5,0,0,0,4.006.579q3.547,0,3.547-2.06a1.723,1.723,0,0,0-.47-1.255,6.814,6.814,0,0,0-1.624-1.094q-1.154-.611-3.077-1.427a19.3,19.3,0,0,1-4.049-2.145,6.034,6.034,0,0,1-1.88-2.263,7.5,7.5,0,0,1-.588-3.143,5.706,5.706,0,0,1,2.468-4.945q2.468-1.749,7-1.749a19.791,19.791,0,0,1,8.4,1.888l-1.966,4.72q-1.795-.772-3.354-1.266a10.493,10.493,0,0,0-3.183-.493q-2.884,0-2.884,1.566a1.843,1.843,0,0,0,.929,1.523,25.228,25.228,0,0,0,4.07,1.909,18.88,18.88,0,0,1,4.1,2.124,6.275,6.275,0,0,1,1.923,2.274A7.014,7.014,0,0,1,111.207,29.355Z" transform="translate(0.002)"/><path class="cls-8" d="M138,24.442q0,5.857-3.077,9.161t-8.567,3.3a11.945,11.945,0,0,1-6.068-1.513,10.048,10.048,0,0,1-4.038-4.345,14.65,14.65,0,0,1-1.41-6.608q0-5.879,3.055-9.14t8.589-3.261a12.012,12.012,0,0,1,6.068,1.5,10.007,10.007,0,0,1,4.038,4.312A14.515,14.515,0,0,1,138,24.442Zm-16.515,0a10.1,10.1,0,0,0,1.164,5.385,4.158,4.158,0,0,0,3.792,1.824,4.092,4.092,0,0,0,3.75-1.813,10.247,10.247,0,0,0,1.143-5.4,9.942,9.942,0,0,0-1.154-5.342,4.892,4.892,0,0,0-7.542-.011A9.933,9.933,0,0,0,121.483,24.442Z" transform="translate(0.002)"/></svg>